<svg id="visual" viewBox="0 0 900 600" width="900" height="600" xmlns="http://www.w3.org/2000/svg" xmlns:xlink="http://www.w3.org/1999/xlink" version="1.1"><path d="M0 167L21.5 173.2C43 179.3 86 191.7 128.8 192.8C171.7 194 214.3 184 257.2 178C300 172 343 170 385.8 174.2C428.7 178.3 471.3 188.7 514.2 200.7C557 212.7 600 226.3 642.8 226.2C685.7 226 728.3 212 771.2 197.5C814 183 857 168 878.5 160.5L900 153L900 0L878.5 0C857 0 814 0 771.2 0C728.3 0 685.7 0 642.8 0C600 0 557 0 514.2 0C471.3 0 428.7 0 385.8 0C343 0 300 0 257.2 0C214.3 0 171.7 0 128.8 0C86 0 43 0 21.5 0L0 0Z" fill="#7e2e84"></path><path d="M0 144L21.5 147.2C43 150.3 86 156.7 128.8 154.2C171.7 151.7 214.3 140.3 257.2 133.3C300 126.3 343 123.7 385.8 128.2C428.7 132.7 471.3 144.3 514.2 156.3C557 168.3 600 180.7 642.8 179.5C685.7 178.3 728.3 163.7 771.2 160C814 156.3 857 163.7 878.5 167.3L900 171L900 0L878.5 0C857 0 814 0 771.2 0C728.3 0 685.7 0 642.8 0C600 0 557 0 514.2 0C471.3 0 428.7 0 385.8 0C343 0 300 0 257.2 0C214.3 0 171.7 0 128.8 0C86 0 43 0 21.5 0L0 0Z" fill="#9452a1"></path><path d="M0 133L21.5 134C43 135 86 137 128.8 140.8C171.7 144.7 214.3 150.3 257.2 153C300 155.7 343 155.3 385.8 149.3C428.7 143.3 471.3 131.7 514.2 121.3C557 111 600 102 642.8 107.5C685.7 113 728.3 133 771.2 132.2C814 131.3 857 109.7 878.5 98.8L900 88L900 0L878.5 0C857 0 814 0 771.2 0C728.3 0 685.7 0 642.8 0C600 0 557 0 514.2 0C471.3 0 428.7 0 385.8 0C343 0 300 0 257.2 0C214.3 0 171.7 0 128.8 0C86 0 43 0 21.5 0L0 0Z" fill="#ab75bd"></path><path d="M0 78L21.5 84.2C43 90.3 86 102.7 128.8 106.8C171.7 111 214.3 107 257.2 98.7C300 90.3 343 77.7 385.8 80C428.7 82.3 471.3 99.7 514.2 107.5C557 115.3 600 113.7 642.8 110.8C685.7 108 728.3 104 771.2 96.7C814 89.3 857 78.7 878.5 73.3L900 68L900 0L878.5 0C857 0 814 0 771.2 0C728.3 0 685.7 0 642.8 0C600 0 557 0 514.2 0C471.3 0 428.7 0 385.8 0C343 0 300 0 257.2 0C214.3 0 171.7 0 128.8 0C86 0 43 0 21.5 0L0 0Z" fill="#c298d9"></path><path d="M0 48L21.5 48.5C43 49 86 50 128.8 51.2C171.7 52.3 214.3 53.7 257.2 54.8C300 56 343 57 385.8 59.3C428.7 61.7 471.3 65.3 514.2 66.7C557 68 600 67 642.8 64.2C685.7 61.3 728.3 56.7 771.2 52C814 47.3 857 42.7 878.5 40.3L900 38L900 0L878.5 0C857 0 814 0 771.2 0C728.3 0 685.7 0 642.8 0C600 0 557 0 514.2 0C471.3 0 428.7 0 385.8 0C343 0 300 0 257.2 0C214.3 0 171.7 0 128.8 0C86 0 43 0 21.5 0L0 0Z" fill="#dbbbf5"></path></svg>